<?xml version="1.0" encoding="UTF-8" standalone="no"?>
<!-- Created with Inkscape (http://www.inkscape.org/) -->

<svg
   xmlns:dc="http://purl.org/dc/elements/1.1/"
   xmlns:cc="http://creativecommons.org/ns#"
   xmlns:rdf="http://www.w3.org/1999/02/22-rdf-syntax-ns#"
   xmlns:svg="http://www.w3.org/2000/svg"
   xmlns="http://www.w3.org/2000/svg"
   xmlns:sodipodi="http://sodipodi.sourceforge.net/DTD/sodipodi-0.dtd"
   xmlns:inkscape="http://www.inkscape.org/namespaces/inkscape"
   version="1.1"
   id="svg5211"
   width="963.32349"
   height="305.41724"
   viewBox="0 0 963.32343 305.41723"
   sodipodi:docname="location.svg"
   inkscape:version="0.92.4 (5da689c313, 2019-01-14)">
  <metadata
     id="metadata5217">
    <rdf:RDF>
      <cc:Work
         rdf:about="">
        <dc:format>image/svg+xml</dc:format>
        <dc:type
           rdf:resource="http://purl.org/dc/dcmitype/StillImage" />
        <dc:title />
      </cc:Work>
    </rdf:RDF>
  </metadata>
  <defs
     id="defs5215" />
  <sodipodi:namedview
     pagecolor="#ffffff"
     bordercolor="#666666"
     borderopacity="1"
     objecttolerance="10"
     gridtolerance="10"
     guidetolerance="10"
     inkscape:pageopacity="0"
     inkscape:pageshadow="2"
     inkscape:window-width="1920"
     inkscape:window-height="1001"
     id="namedview5213"
     showgrid="false"
     inkscape:zoom="0.37874998"
     inkscape:cx="267.86366"
     inkscape:cy="924.09247"
     inkscape:window-x="-9"
     inkscape:window-y="-9"
     inkscape:window-maximized="1"
     inkscape:current-layer="svg5211"
     fit-margin-top="0"
     fit-margin-left="0"
     fit-margin-right="0"
     fit-margin-bottom="0" />
  <path
     style="opacity:0.15899999;fill:#008b40;fill-opacity:1;stroke:none;stroke-width:7.10929155;stroke-miterlimit:4;stroke-dasharray:none;stroke-opacity:1"
     d="m 181.19638,0 h 600.93073 c 100.38279,0 181.19638,68.108044 181.19638,152.70862 0,84.60057 -80.81359,152.70862 -181.19638,152.70862 H 181.19638 C 80.813586,305.41724 0,237.30919 0,152.70862 0,68.108044 80.813586,0 181.19638,0 Z"
     id="rect816" />
  <path
     style="opacity:1;fill:#008b40;fill-opacity:1;stroke:none;stroke-width:7.10929203;stroke-miterlimit:4;stroke-dasharray:none;stroke-opacity:1"
     d="M 138.04984,300.40076 C 99.635908,292.68396 67.141468,274.95854 41.149618,247.5426 12.833278,217.67482 1.0711979,189.73666 1.1999779,152.65129 1.3380079,112.90189 13.470338,85.42366 44.414468,54.77582 61.050168,38.29941 70.824298,31.12431 88.264148,22.58616 133.48996,0.44464992 102.71904,2.0508799 481.66352,2.0508799 c 378.47894,0 347.7003,-1.58401998 393.11179,20.2315101 27.53597,13.22819 61.32708,45.12503 72.63488,68.56312 14.07839,29.18078 18.51773,63.40735 11.93149,91.99005 -8.99412,39.03235 -43.69218,80.19213 -84.2788,99.97381 -44.7148,21.79374 -13.35923,20.12005 -386.7987,20.64633 -268.32921,0.37814 -336.06599,-0.2128 -350.21434,-3.05494 z"
     id="path818"
     inkscape:connector-curvature="0" />
  <path
     style="fill:#ffffff;fill-opacity:1;stroke:none;stroke-width:5;stroke-linecap:butt;stroke-linejoin:miter;stroke-miterlimit:4;stroke-dasharray:none;stroke-opacity:1"
     d="m 164.89058,234.13012 c 213.65517,-231.5250801 -218.555622,-228.4993901 0,0 z"
     id="path5221"
     inkscape:connector-curvature="0"
     sodipodi:nodetypes="cc"
     clip-path="none" />
  <path
     style="opacity:1;fill:#008b40;fill-opacity:1;stroke:none;stroke-width:7.10929251;stroke-miterlimit:4;stroke-dasharray:none;stroke-opacity:1"
     d="m 149.63628,147.19947 c -6.94907,-3.78444 -9.31292,-6.2281 -12.97374,-13.41182 -3.84841,-7.55182 -4.35802,-10.01207 -3.63237,-17.536 3.11402,-32.28793 45.58496,-39.90975 58.69979,-10.53423 8.9406,20.0258 -3.84629,43.04335 -25.13048,45.23707 -7.27817,0.75015 -9.65805,0.22334 -16.9632,-3.75502 z"
     id="path820"
     inkscape:connector-curvature="0" />
  <g
     aria-label="Nous trouver"
     transform="scale(0.93403456,1.0706242)"
     style="font-style:normal;font-variant:normal;font-weight:normal;font-stretch:normal;font-size:120.15762329px;line-height:1.25;font-family:Oswald;-inkscape-font-specification:Oswald;letter-spacing:0px;word-spacing:0px;fill:#000000;fill-opacity:1;stroke:none;stroke-width:1.00000012"
     id="text817">
    <path
       d="M 285.92462,185.45404 V 79.788084 h 15.37172 L 324.47128,135.0559 V 79.788084 h 17.71855 V 185.45404 H 327.40481 L 304.28855,126.842 v 58.61204 z"
       style="fill:#ffffff;stroke-width:1.00000012"
       id="path817" />
    <path
       d="m 381.3232,165.79935 v -37.90128 q 0,-5.8084 -4.51765,-5.8084 -4.04828,0 -4.04828,5.8084 v 37.90128 q 0,1.29076 0.0587,2.17082 0.11734,0.82139 0.46936,1.9948 0.35203,1.11475 1.23209,1.70145 0.88006,0.58671 2.28815,0.58671 4.51765,0 4.51765,-6.45378 z m -28.33796,-0.23468 v -32.56225 q 0,-12.26218 5.74973,-19.00931 5.8084,-6.8058 18.07058,-6.8058 12.26218,0 18.18793,6.8058 5.92574,6.74713 5.92574,19.00931 v 32.56225 q 0,9.56332 -7.09916,15.60641 -7.09916,5.98441 -17.01451,5.98441 -6.3951,0 -11.79281,-2.58151 -5.39771,-2.64018 -8.74194,-7.62719 -3.28556,-5.04568 -3.28556,-11.38212 z"
       style="fill:#ffffff;stroke-width:1.00000012"
       id="path819" />
    <path
       d="m 410.54121,170.61035 v -61.72159 h 19.77203 v 56.91059 q 0,6.45378 2.69885,6.45378 2.64019,0 6.16043,-4.34163 v -59.02274 h 19.77203 v 76.56528 h -19.77203 v -6.62979 q -2.99221,3.63758 -6.98182,5.98441 -3.9896,2.34683 -8.09655,2.34683 -6.04309,0 -9.79801,-5.10435 -3.75493,-5.16302 -3.75493,-11.44079 z"
       style="fill:#ffffff;stroke-width:1.00000012"
       id="path821" />
    <path
       d="m 466.80642,166.97277 15.13705,-5.39771 q 0.5867,1.76012 0.93873,2.75752 0.35202,0.93873 1.17341,2.8162 0.88006,1.81879 1.64278,2.81619 0.82139,0.9974 2.05348,1.87746 1.29075,0.82139 2.69885,0.82139 3.69625,0 3.69625,-4.34163 0,-1.58411 -0.76271,-3.22689 -0.70405,-1.70145 -1.52544,-2.87486 -0.76272,-1.23209 -2.75753,-3.16822 -1.93613,-1.93613 -2.9922,-2.87487 -1.05608,-0.93873 -3.69626,-3.16821 l -3.22689,-2.75753 q -6.27776,-5.45637 -9.85668,-10.73674 -3.57891,-5.28036 -3.57891,-11.73414 0,-4.98701 2.05347,-8.97662 2.11215,-4.04828 5.63239,-6.51245 3.52025,-2.46417 7.86188,-3.75493 4.4003,-1.34942 9.2113,-1.34942 4.28296,0 8.2139,1.81879 3.93094,1.81879 6.86447,4.86967 2.99221,2.99221 5.16303,6.8058 2.17081,3.75493 3.34423,7.92055 l -14.19832,4.86967 q -0.70404,-1.76012 -1.17341,-2.87487 -0.46937,-1.17341 -1.52544,-2.9922 -0.9974,-1.87747 -1.9948,-2.99221 -0.93873,-1.11474 -2.34683,-1.93613 -1.4081,-0.88006 -2.93354,-0.88006 -2.05347,0 -3.22689,1.46676 -1.11474,1.46677 -1.11474,3.34423 0,2.58152 2.81619,5.8084 2.87487,3.16822 7.86188,7.33384 l 3.63758,3.22689 q 2.93354,2.64019 5.04569,4.98701 2.17081,2.28816 4.28296,5.2217 2.17081,2.93353 3.28556,6.16042 1.17341,3.22689 1.17341,6.45378 0,9.26997 -6.57112,15.31306 -6.51245,6.04308 -15.78242,6.04308 -8.97662,0 -15.48907,-5.57372 -6.51245,-5.57371 -9.03529,-14.609 z"
       style="fill:#ffffff;stroke-width:1.00000012"
       id="path823" />
    <path
       d="m 546.53992,159.16956 v -37.07989 h -5.63239 v -13.20091 h 5.63239 V 83.719022 h 19.77203 v 25.169738 h 9.50466 v 13.20091 h -9.50466 v 41.83222 q 0,3.16822 1.17341,4.75233 1.17342,1.52543 4.16562,1.52543 3.40291,0 5.74973,-0.35202 v 15.31306 q -3.87226,1.17341 -12.49686,1.17341 -3.46157,0 -6.27776,-0.82139 -2.75753,-0.82139 -4.69366,-2.17082 -1.87746,-1.40809 -3.28556,-3.52024 -1.34943,-2.11214 -2.17082,-4.28296 -0.76272,-2.22949 -1.23208,-5.16302 -0.4107,-2.93354 -0.58671,-5.45638 -0.11734,-2.52284 -0.11734,-5.74973 z"
       style="fill:#ffffff;stroke-width:1.00000012"
       id="path825" />
    <path
       d="m 584.38254,185.45404 v -76.56528 h 19.65469 v 6.21909 q 4.51764,-7.33384 10.56073,-7.33384 1.70145,0 5.33903,0.58671 v 16.66248 q -5.45637,-0.5867 -7.68586,-0.5867 -4.04828,0 -6.16043,2.52284 -2.05347,2.46417 -2.05347,7.09915 v 51.39555 z"
       style="fill:#ffffff;stroke-width:1.00000012"
       id="path827" />
    <path
       d="m 651.67785,165.79935 v -37.90128 q 0,-5.8084 -4.51764,-5.8084 -4.04828,0 -4.04828,5.8084 v 37.90128 q 0,1.29076 0.0587,2.17082 0.11734,0.82139 0.46936,1.9948 0.35203,1.11475 1.23209,1.70145 0.88006,0.58671 2.28816,0.58671 4.51764,0 4.51764,-6.45378 z m -28.33795,-0.23468 v -32.56225 q 0,-12.26218 5.74973,-19.00931 5.8084,-6.8058 18.07058,-6.8058 12.26218,0 18.18792,6.8058 5.92574,6.74713 5.92574,19.00931 v 32.56225 q 0,9.56332 -7.09916,15.60641 -7.09915,5.98441 -17.0145,5.98441 -6.39511,0 -11.79282,-2.58151 -5.3977,-2.64018 -8.74193,-7.62719 -3.28556,-5.04568 -3.28556,-11.38212 z"
       style="fill:#ffffff;stroke-width:1.00000012"
       id="path829" />
    <path
       d="m 680.89586,170.61035 v -61.72159 h 19.77203 v 56.91059 q 0,6.45378 2.69885,6.45378 2.64018,0 6.16042,-4.34163 v -59.02274 h 19.77204 v 76.56528 h -19.77204 v -6.62979 q -2.9922,3.63758 -6.98181,5.98441 -3.98961,2.34683 -8.09656,2.34683 -6.04308,0 -9.79801,-5.10435 -3.75492,-5.16302 -3.75492,-11.44079 z"
       style="fill:#ffffff;stroke-width:1.00000012"
       id="path831" />
    <path
       d="m 751.47675,185.45404 -15.89976,-76.56528 h 18.53994 l 7.56853,51.6889 6.3951,-51.6889 h 18.53995 l -15.13704,76.56528 z"
       style="fill:#ffffff;stroke-width:1.00000012"
       id="path833" />
    <path
       d="m 811.37954,138.4588 h 7.68586 v -10.56073 q 0,-5.8084 -3.93094,-5.8084 -3.75492,0 -3.75492,5.8084 z m -19.77204,27.10587 v -32.56225 q 0,-12.20351 5.80841,-19.00931 5.8084,-6.86447 17.71855,-6.86447 11.96883,0 17.71856,6.8058 5.8084,6.8058 5.8084,19.06798 v 15.84109 h -27.28188 v 16.95584 q 0,6.45378 3.75492,6.45378 4.10695,0 4.10695,-6.92314 v -8.38992 h 19.42001 v 8.6246 q 0,9.56332 -6.92315,15.60641 -6.92314,5.98441 -16.60381,5.98441 -9.68067,0 -16.60381,-6.04308 -6.92315,-6.04309 -6.92315,-15.54774 z"
       style="fill:#ffffff;stroke-width:1.00000012"
       id="path835" />
    <path
       d="m 847.69669,185.45404 v -76.56528 h 19.65469 v 6.21909 q 4.51764,-7.33384 10.56073,-7.33384 1.70145,0 5.33903,0.58671 v 16.66248 q -5.45638,-0.5867 -7.68586,-0.5867 -4.04828,0 -6.16043,2.52284 -2.05347,2.46417 -2.05347,7.09915 v 51.39555 z"
       style="fill:#ffffff;stroke-width:1.00000012"
       id="path837" />
  </g>
</svg>
