<?xml version="1.0" encoding="UTF-8" standalone="no"?>
<!-- Created with Inkscape (http://www.inkscape.org/) -->

<svg
   xmlns:dc="http://purl.org/dc/elements/1.1/"
   xmlns:cc="http://creativecommons.org/ns#"
   xmlns:rdf="http://www.w3.org/1999/02/22-rdf-syntax-ns#"
   xmlns:svg="http://www.w3.org/2000/svg"
   xmlns="http://www.w3.org/2000/svg"
   xmlns:xlink="http://www.w3.org/1999/xlink"
   xmlns:sodipodi="http://sodipodi.sourceforge.net/DTD/sodipodi-0.dtd"
   xmlns:inkscape="http://www.inkscape.org/namespaces/inkscape"
   width="210mm"
   height="297mm"
   viewBox="0 0 210 297"
   version="1.1"
   id="svg8"
   inkscape:version="0.92.4 (5da689c313, 2019-01-14)"
   sodipodi:docname="logo_La_Remise.svg"
   inkscape:export-filename="C:\Users\pioup\Documents\Formation\Graphisme\projet\logo_La_Remise.png"
   inkscape:export-xdpi="300"
   inkscape:export-ydpi="300">
  <defs
     id="defs2">
    <path
       sodipodi:nodetypes="cc"
       inkscape:connector-curvature="0"
       id="path4512-7"
       d="m 33.120131,108.68839 c 9.627971,-10.459063 23.196282,-12.373845 34.066421,1.35185"
       style="fill:none;stroke:none;stroke-width:0.26458332px;stroke-linecap:butt;stroke-linejoin:miter;stroke-opacity:1" />
    <path
       sodipodi:nodetypes="cc"
       inkscape:connector-curvature="0"
       id="path4726-7"
       d="m 39.287354,139.37263 c 5.692457,2.98229 13.298104,2.40223 20.265011,-0.47795"
       style="fill:none;stroke:none;stroke-width:0.26458332px;stroke-linecap:butt;stroke-linejoin:miter;stroke-opacity:1" />
    <path
       sodipodi:nodetypes="cc"
       inkscape:connector-curvature="0"
       id="path4512-5"
       d="m 33.120131,108.68839 c 9.627971,-10.459063 23.196282,-12.373845 34.066421,1.35185"
       style="fill:none;stroke:none;stroke-width:0.26458332px;stroke-linecap:butt;stroke-linejoin:miter;stroke-opacity:1" />
    <path
       sodipodi:nodetypes="cc"
       inkscape:connector-curvature="0"
       id="path4726-5"
       d="m 39.287354,139.37263 c 5.692457,2.98229 13.298104,2.40223 20.265011,-0.47795"
       style="fill:none;stroke:none;stroke-width:0.26458332px;stroke-linecap:butt;stroke-linejoin:miter;stroke-opacity:1" />
    <path
       sodipodi:nodetypes="cc"
       inkscape:connector-curvature="0"
       id="path4512-7-3"
       d="m 33.120131,108.68839 c 9.627971,-10.459063 23.196282,-12.373845 34.066421,1.35185"
       style="fill:none;stroke:none;stroke-width:0.26458332px;stroke-linecap:butt;stroke-linejoin:miter;stroke-opacity:1" />
    <path
       sodipodi:nodetypes="cc"
       inkscape:connector-curvature="0"
       id="path4512-0"
       d="m 27.992385,109.36309 c 10.707497,-9.514475 34.795978,-6.91814 41.75804,3.78079"
       style="fill:none;stroke:none;stroke-width:0.26458332px;stroke-linecap:butt;stroke-linejoin:miter;stroke-opacity:1" />
    <path
       sodipodi:nodetypes="cc"
       inkscape:connector-curvature="0"
       id="path4726-4"
       d="m 37.533125,137.6184 c 5.692457,2.98229 13.972808,2.40223 20.939715,-0.47795"
       style="fill:none;stroke:none;stroke-width:0.26458332px;stroke-linecap:butt;stroke-linejoin:miter;stroke-opacity:1" />
  </defs>
  <sodipodi:namedview
     id="base"
     pagecolor="#ffffff"
     bordercolor="#666666"
     borderopacity="1.0"
     inkscape:pageopacity="0.0"
     inkscape:pageshadow="2"
     inkscape:zoom="1.915149"
     inkscape:cx="168.03826"
     inkscape:cy="432.66873"
     inkscape:document-units="mm"
     inkscape:current-layer="layer2"
     showgrid="false"
     showguides="true"
     inkscape:window-width="1920"
     inkscape:window-height="1001"
     inkscape:window-x="-9"
     inkscape:window-y="-9"
     inkscape:window-maximized="1"
     inkscape:guide-bbox="true"
     inkscape:snap-nodes="false"
     inkscape:snap-others="true"
     inkscape:snap-global="true"
     inkscape:snap-bbox="true"
     inkscape:snap-text-baseline="true"
     inkscape:snap-grids="false"
     inkscape:snap-to-guides="false"
     inkscape:bbox-paths="false"
     inkscape:bbox-nodes="false"
     inkscape:snap-bbox-edge-midpoints="true">
    <sodipodi:guide
       position="67.078482,178.14443"
       orientation="0,1"
       id="guide96"
       inkscape:locked="false" />
    <sodipodi:guide
       position="20.879504,120.48773"
       orientation="0,1"
       id="guide12826"
       inkscape:locked="false" />
    <sodipodi:guide
       position="17.002013,341.98362"
       orientation="1,0"
       id="guide12830"
       inkscape:locked="false" />
    <sodipodi:guide
       position="77.651183,120.72593"
       orientation="1,0"
       id="guide12832"
       inkscape:locked="false" />
    <sodipodi:guide
       position="52.447509,131.93221"
       orientation="0,1"
       id="guide12834"
       inkscape:locked="false" />
    <inkscape:grid
       type="xygrid"
       id="grid8128"
       spacingx="0.14111111"
       spacingy="0.14111111"
       color="#3fbdff"
       opacity="0.1254902"
       dotted="true" />
    <sodipodi:guide
       position="72.355264,109.56444"
       orientation="1,0"
       id="guide8147"
       inkscape:locked="false" />
    <sodipodi:guide
       position="18.52,111.59972"
       orientation="1,0"
       id="guide8219"
       inkscape:label=""
       inkscape:color="rgb(0,0,255)"
       inkscape:locked="false" />
    <sodipodi:guide
       position="73.855001,116.34314"
       orientation="1,0"
       id="guide8221"
       inkscape:label=""
       inkscape:color="rgb(0,0,255)"
       inkscape:locked="false" />
    <sodipodi:guide
       position="56.580314,88.454994"
       orientation="0,1"
       id="guide8346"
       inkscape:locked="false" />
    <sodipodi:guide
       position="55.69797,82.278586"
       orientation="0,1"
       id="guide8348"
       inkscape:locked="false" />
    <sodipodi:guide
       position="18.443652,118.89382"
       orientation="0,1"
       id="guide8142"
       inkscape:label=""
       inkscape:color="rgb(0,0,255)"
       inkscape:locked="false" />
  </sodipodi:namedview>
  <metadata
     id="metadata5">
    <rdf:RDF>
      <cc:Work
         rdf:about="">
        <dc:format>image/svg+xml</dc:format>
        <dc:type
           rdf:resource="http://purl.org/dc/dcmitype/StillImage" />
        <dc:title />
      </cc:Work>
    </rdf:RDF>
  </metadata>
  <g
     inkscape:groupmode="layer"
     id="layer3"
     inkscape:label="REMISE">
    <g
       transform="matrix(0.9532142,0,0,0.96046378,0.60600229,8.1400405)"
       style="font-style:normal;font-weight:normal;font-size:9.55062389px;line-height:125%;font-family:sans-serif;letter-spacing:-0.51573366px;word-spacing:0px;fill:#008b40;fill-opacity:1;stroke:none;stroke-width:1px;stroke-linecap:butt;stroke-linejoin:miter;stroke-miterlimit:4;stroke-dasharray:none;stroke-opacity:1"
       id="text12745"
       inkscape:export-xdpi="134.05054"
       inkscape:export-ydpi="134.05054"
       inkscape:export-filename="C:\Users\pioup\Documents\Formation\Graphisme\projet\logo\logo_La_Remise_300x84px.png">
      <path
         d="m 24.057744,169.13004 q 0.08596,-0.01 0.171911,-0.01 0.09551,-0.01 0.181462,-0.0286 0.191013,-0.29607 0.372474,-0.57304 0.191013,-0.27697 0.382025,-0.52528 0.324722,-0.43933 0.678095,-0.94552 0.362923,-0.50618 0.754499,-1.00281 0.401126,-0.50618 0.840455,-0.96461 0.448879,-0.46798 0.945512,-0.81181 0.496632,-0.35337 1.050568,-0.55393 0.553936,-0.21012 1.165176,-0.20057 0.30562,0.01 0.553937,0.10506 0.257866,0.086 0.439328,0.24832 0.181462,0.15281 0.267418,0.37247 0.08596,0.21012 0.06685,0.47753 -0.02865,0.42023 -0.276968,0.85956 -0.238766,0.43933 -0.649442,0.87866 -0.410677,0.42977 -0.964613,0.84045 -0.544386,0.41068 -1.193828,0.7736 -0.649443,0.35337 -1.37529,0.65899 -0.716297,0.30562 -1.470796,0.51574 -0.439329,0.61124 -0.888208,1.22248 -0.439329,0.60169 -0.90731,1.16517 -0.46798,0.55394 -0.974163,1.05057 -0.506183,0.49664 -1.06967,0.88821 0.687645,0.28652 1.356188,0.51573 0.668544,0.23877 1.346638,0.23877 0.429778,0 0.840455,-0.17191 0.420228,-0.16236 0.802253,-0.56349 0.09551,-0.0859 0.181462,-0.0764 0.08595,0 0.133708,0.0573 0.04775,0.0478 0.0382,0.13371 0,0.086 -0.0764,0.15281 -0.171911,0.27697 -0.401126,0.53483 -0.219665,0.25787 -0.534835,0.45843 -0.30562,0.20057 -0.716297,0.32473 -0.410677,0.12415 -0.955063,0.12415 -0.391575,0 -0.754499,-0.1146 -0.353373,-0.11461 -0.697195,-0.30562 -0.334272,-0.18147 -0.668544,-0.41068 -0.324721,-0.21966 -0.649442,-0.43933 -0.525285,0.27697 -1.107873,0.42978 -0.573037,0.16236 -1.23203,0.19101 -0.30562,0.01 -0.630342,-0.0382 -0.324721,-0.0382 -0.601689,-0.15281 -0.267417,-0.11461 -0.448879,-0.30562 -0.171911,-0.18146 -0.171911,-0.44888 0,-0.14326 0.114607,-0.29607 0.124158,-0.16236 0.353373,-0.29607 0.238766,-0.13371 0.592139,-0.21966 0.353373,-0.0955 0.821354,-0.11461 0.544385,-0.0286 1.069669,0.0955 0.534835,0.12415 1.06967,0.32472 0.401126,-0.33428 0.773601,-0.74495 0.372474,-0.42023 0.725847,-0.88821 0.353373,-0.46798 0.687645,-0.95506 0.334272,-0.49663 0.649443,-0.98372 -0.0382,0 -0.07641,0.01 -0.02865,0 -0.06686,0 -0.76405,0.0669 -1.413492,-0.0191 -0.649443,-0.0859 -1.126974,-0.34382 -0.477531,-0.25787 -0.744948,-0.68764 -0.267418,-0.43933 -0.267418,-1.06967 0,-0.43933 0.210114,-0.86911 0.210114,-0.42978 0.573037,-0.80225 0.362924,-0.37248 0.840455,-0.64945 0.477531,-0.27696 1.012366,-0.40112 0.534835,-0.13371 1.098322,-0.0764 0.563487,0.0573 1.088771,0.35338 0.105057,0.0573 0.114608,0.14326 0.0191,0.0764 -0.02865,0.14325 -0.0382,0.0573 -0.124158,0.0764 -0.08596,0.0191 -0.181462,-0.0382 -0.382025,-0.23877 -0.783151,-0.26742 -0.401127,-0.0286 -0.792702,0.0955 -0.382025,0.1146 -0.725848,0.36292 -0.334271,0.24832 -0.592138,0.56349 -0.257867,0.31517 -0.410677,0.67809 -0.15281,0.36292 -0.143259,0.7163 0,0.54438 0.219664,0.87865 0.229215,0.32473 0.582588,0.49664 0.362924,0.17191 0.811803,0.21011 0.45843,0.0382 0.91686,0 z m 6.227007,-5.16689 q -0.372475,0.01 -0.697196,0.21012 -0.31517,0.20056 -0.61124,0.53483 -0.296069,0.32472 -0.573037,0.76405 -0.276968,0.43933 -0.573038,0.94551 -0.296069,0.49664 -0.62079,1.04102 -0.324721,0.53484 -0.706746,1.06967 0.91686,-0.36292 1.719112,-0.85955 0.811803,-0.50619 1.413492,-1.04102 0.61124,-0.53484 0.964613,-1.05057 0.353373,-0.51573 0.353373,-0.89776 0,-0.15281 -0.06685,-0.28652 -0.06685,-0.13371 -0.171911,-0.22921 -0.09551,-0.0955 -0.219665,-0.14326 -0.114607,-0.0573 -0.210113,-0.0573 z m -11.221983,10.14277 q 0.429778,0 0.821353,-0.13371 0.391576,-0.13371 0.773601,-0.37248 -0.353373,-0.18146 -0.735398,-0.27697 -0.372475,-0.10505 -0.792702,-0.0764 -0.744949,0.0382 -1.041018,0.17191 -0.296069,0.13371 -0.296069,0.28652 0,0.14326 0.15281,0.21966 0.16236,0.086 0.362923,0.12416 0.210114,0.0382 0.420228,0.0478 0.219664,0.01 0.334272,0.01 z"
         style="font-style:normal;font-variant:normal;font-weight:normal;font-stretch:normal;font-family:'Blessed Personal Use';-inkscape-font-specification:'Blessed Personal Use';fill:#008b40;fill-opacity:1"
         id="path8131"
         inkscape:connector-curvature="0" />
      <path
         d="m 32.157568,172.21489 q -0.496632,0.44888 -0.888208,0.72585 -0.382025,0.27697 -0.687645,0.42978 -0.296069,0.14326 -0.525284,0.20056 -0.219664,0.0478 -0.391575,0.0286 -0.162361,-0.01 -0.267418,-0.0955 -0.105057,-0.0955 -0.162361,-0.21967 -0.04775,-0.12416 -0.06685,-0.24831 -0.0096,-0.12416 0.0096,-0.20057 0,-0.0191 0.0191,-0.0764 -0.210114,0.17191 -0.429778,0.33427 -0.219664,0.15281 -0.448879,0.26742 -0.219665,0.1146 -0.44888,0.18146 -0.219664,0.0669 -0.420227,0.0669 -0.219665,-0.01 -0.372475,-0.086 -0.15281,-0.086 -0.248316,-0.20057 -0.09551,-0.12415 -0.133709,-0.25786 -0.04775,-0.14326 -0.04775,-0.27697 0.0096,-0.31517 0.162361,-0.65899 0.15281,-0.34383 0.410677,-0.66855 0.248316,-0.32472 0.563487,-0.61124 0.324721,-0.29607 0.668543,-0.51573 0.353373,-0.21966 0.706746,-0.34382 0.353374,-0.12416 0.658993,-0.11461 0.372475,0.0191 0.582589,0.13371 0.219664,0.11461 0.31517,0.34382 0.0382,-0.0573 0.06686,-0.0859 0.133708,-0.18147 0.276968,-0.21012 0.15281,-0.0382 0.401126,-0.0191 0.143259,0.01 0.248316,0.0286 0.105057,0.01 0.143259,0.0573 0.04775,0.0382 0.02865,0.12415 -0.0191,0.0764 -0.114607,0.21012 -0.133709,0.18146 -0.30562,0.42023 -0.162361,0.22921 -0.334272,0.46798 -0.162361,0.22921 -0.324721,0.45843 -0.15281,0.21966 -0.257867,0.37247 -0.0573,0.086 -0.06685,0.17191 0,0.0764 0.0382,0.14326 0.04775,0.0573 0.114608,0.086 0.06685,0.0286 0.15281,0.01 0.143259,-0.0287 0.324721,-0.12416 0.181462,-0.10506 0.362923,-0.22922 0.181462,-0.12415 0.334272,-0.25786 0.162361,-0.13371 0.267418,-0.23877 l 0.658993,-0.69719 q 0.105057,-0.0764 0.191012,-0.0669 0.08596,0 0.133709,0.0573 0.04775,0.0478 0.0382,0.13371 0,0.086 -0.0764,0.17191 -0.210113,0.21967 -0.410676,0.43933 -0.200563,0.21967 -0.44888,0.43933 z m -3.638787,0.38203 q 0.248316,0 0.573037,-0.25787 0.324721,-0.26742 0.735398,-0.82135 l 0.219664,-0.29607 q 0.210114,-0.27697 0.248317,-0.50619 0.0382,-0.23876 -0.133709,-0.27696 -0.219664,-0.0478 -0.448879,0.0286 -0.229215,0.0669 -0.45843,0.22921 -0.229215,0.15281 -0.429778,0.37248 -0.200563,0.21011 -0.353373,0.42978 -0.15281,0.21011 -0.248317,0.42022 -0.08596,0.20057 -0.08596,0.33427 0,0.16237 0.105057,0.25787 0.114607,0.0955 0.276968,0.086 z"
         style="font-style:normal;font-variant:normal;font-weight:normal;font-stretch:normal;font-family:'Blessed Personal Use';-inkscape-font-specification:'Blessed Personal Use';fill:#008b40;fill-opacity:1"
         id="path8133"
         inkscape:connector-curvature="0" />
      <path
         d="m 47.435582,172.21489 q -0.496633,0.47753 -1.031468,0.89776 -0.534835,0.41068 -1.050568,0.7163 -0.515734,0.31517 -0.983715,0.49663 -0.458429,0.18146 -0.802252,0.18146 -0.410677,0 -0.687645,-0.0955 -0.267417,-0.086 -0.439329,-0.23877 -0.16236,-0.14326 -0.238765,-0.33427 -0.0764,-0.18146 -0.0764,-0.37248 -0.0096,-0.30562 0.143259,-0.63989 0.162361,-0.33427 0.391576,-0.66854 0.238765,-0.34382 0.515733,-0.68765 0.276969,-0.35337 0.506184,-0.69719 0.238765,-0.35337 0.391575,-0.68765 0.162361,-0.33427 0.15281,-0.64944 -0.181462,-0.01 -0.353373,-0.0191 -0.171911,-0.01 -0.334272,-0.0382 -0.229215,-0.0382 -0.362924,-0.14326 -0.133708,-0.10506 -0.191012,-0.23877 -0.0573,-0.13371 -0.0382,-0.27697 0.0191,-0.15281 0.09551,-0.26741 0.08595,-0.11461 0.219664,-0.19102 0.133709,-0.0859 0.296069,-0.10505 0.171912,-0.0191 0.353374,0.0478 0.181461,0.0573 0.353373,0.22922 0.124158,0.12415 0.219664,0.25786 0.105057,0.13371 0.191012,0.27697 0.525285,-0.0573 1.041018,-0.22921 0.525285,-0.17192 0.935962,-0.47754 0.420227,-0.31517 0.678094,-0.76405 0.267417,-0.44888 0.286519,-1.05056 0.0095,-0.48709 -0.229215,-0.94552 -0.229215,-0.45843 -0.687645,-0.8118 -0.44888,-0.35337 -1.107873,-0.56349 -0.649442,-0.21966 -1.470796,-0.21966 -0.878657,0 -1.747764,0.19101 -0.869107,0.19101 -1.671359,0.52529 -0.792702,0.33427 -1.489897,0.7927 -0.687645,0.45843 -1.22248,0.99326 -0.534835,0.53484 -0.878658,1.12698 -0.334272,0.59214 -0.429778,1.19382 -0.0382,0.24832 0.0191,0.53484 0.06686,0.27697 0.229215,0.50618 0.171912,0.22922 0.44888,0.34383 0.276968,0.1146 0.668543,0.0286 0.124159,-0.0286 0.200564,0.01 0.07641,0.0382 0.09551,0.10505 0.0191,0.0669 -0.02865,0.14326 -0.0382,0.0764 -0.162361,0.12416 -0.544385,0.21012 -1.088771,0.14326 -0.534835,-0.0668 -0.964613,-0.33427 -0.429778,-0.27697 -0.687645,-0.7163 -0.257867,-0.43933 -0.229215,-0.98371 0.0382,-0.7163 0.439329,-1.38484 0.410677,-0.6781 1.07922,-1.26068 0.678095,-0.59214 1.556752,-1.06967 0.878658,-0.48709 1.852821,-0.82136 0.983714,-0.34382 1.996081,-0.51573 1.021916,-0.17191 1.967428,-0.14326 1.079221,0.0382 1.957878,0.21966 0.888208,0.18147 1.518549,0.51574 0.639892,0.33427 1.021917,0.84045 0.382025,0.50619 0.45843,1.18428 0,0.8118 -0.372474,1.40394 -0.372475,0.58259 -0.964613,0.97416 -0.592139,0.39158 -1.337088,0.60169 -0.735398,0.20057 -1.470796,0.24832 0.14326,0.38203 0.171911,0.76405 0.0382,0.38203 -0.02865,0.68765 -0.09551,0.42977 -0.343823,0.8118 -0.238766,0.37247 -0.496632,0.70674 -0.257867,0.32473 -0.467981,0.60169 -0.200563,0.26742 -0.210114,0.47753 -0.0095,0.13371 0.0573,0.24832 0.06685,0.11461 0.257867,0.12416 0.15281,0 0.420227,-0.10506 0.276968,-0.0955 0.630342,-0.27697 0.353373,-0.19101 0.7736,-0.45843 0.429778,-0.26741 0.888208,-0.60169 0.410677,-0.28651 0.754499,-0.62079 0.343823,-0.34382 0.716297,-0.74494 0.09551,-0.0764 0.181462,-0.0669 0.08596,0 0.133709,0.0573 0.04775,0.0478 0.0382,0.13371 0,0.086 -0.07641,0.17191 -0.210113,0.21967 -0.410677,0.43933 -0.200563,0.21967 -0.439328,0.43933 z m -1.384841,-7.15341 q 0.124158,0 0.181462,0.0669 0.0573,0.0573 0.04775,0.13371 0,0.0668 -0.0573,0.12416 -0.0573,0.0573 -0.16236,0.0573 -0.620791,0.0573 -1.126974,0.46798 -0.506183,0.40113 -0.983714,1.02192 -0.467981,0.62079 -0.945512,1.40394 -0.477531,0.7736 -1.041018,1.5854 -0.601689,0.85956 -1.241581,1.68091 -0.630341,0.81181 -1.337087,1.4517 -0.706746,0.63989 -1.508999,1.03146 -0.792702,0.40113 -1.709561,0.41068 -0.44888,0 -0.888208,-0.14326 -0.429779,-0.13371 -0.7545,-0.38202 -0.324721,-0.24832 -0.506183,-0.58259 -0.171911,-0.34382 -0.09551,-0.7354 0.09551,-0.29607 0.296069,-0.46798 0.210114,-0.18146 0.429778,-0.24832 0.229215,-0.0764 0.429778,-0.0477 0.210114,0.0191 0.315171,0.12416 0.105057,0.0955 0.06685,0.26742 -0.02865,0.16236 -0.286518,0.38202 -0.14326,0.12416 -0.200563,0.25787 -0.0573,0.12416 0.0096,0.28652 0.29607,0.69719 1.174727,0.70674 0.382025,0.01 0.754499,-0.18146 0.382025,-0.19101 0.754499,-0.52528 0.372475,-0.34383 0.744949,-0.7927 0.382025,-0.44888 0.754499,-0.95507 0.372475,-0.51573 0.744949,-1.06012 0.382025,-0.54438 0.76405,-1.06012 0.582588,-0.80225 1.193828,-1.5854 0.620791,-0.78315 1.279784,-1.39439 0.668543,-0.62079 1.38484,-0.98371 0.725847,-0.36293 1.518549,-0.31517 z m -2.273048,3.91575 q 0.07641,0.01 0.16236,0.0191 0.08596,0 0.171912,0 -0.02865,-0.0478 -0.0573,-0.0859 -0.0191,-0.0478 -0.0573,-0.0955 -0.16236,-0.20056 -0.343822,-0.23877 -0.171912,-0.0382 -0.229215,0.086 -0.04775,0.086 0,0.19101 0.04775,0.0955 0.353373,0.12416 z"
         style="font-style:normal;font-variant:normal;font-weight:normal;font-stretch:normal;font-family:'Blessed Personal Use';-inkscape-font-specification:'Blessed Personal Use';fill:#008b40;fill-opacity:1"
         id="path8135"
         inkscape:connector-curvature="0" />
      <path
         d="m 52.034656,171.33623 q -0.391576,0.40113 -0.821354,0.81181 -0.429778,0.41067 -0.907309,0.7354 -0.467981,0.32472 -0.983715,0.53483 -0.515733,0.20056 -1.069669,0.19101 -0.29607,-0.01 -0.582589,-0.0764 -0.276968,-0.0764 -0.496632,-0.21967 -0.210114,-0.15281 -0.324721,-0.38202 -0.124158,-0.22922 -0.105057,-0.55394 0.0191,-0.28652 0.181462,-0.58259 0.16236,-0.29606 0.420227,-0.57303 0.257867,-0.28652 0.592139,-0.53484 0.343822,-0.25786 0.706746,-0.44888 0.362924,-0.19101 0.735398,-0.31517 0.382025,-0.12416 0.725848,-0.14326 0.343822,-0.0191 0.563486,0.0478 0.229215,0.0669 0.343823,0.19101 0.124158,0.11461 0.15281,0.27697 0.02865,0.15281 -0.0191,0.31517 -0.114608,0.36292 -0.420228,0.65899 -0.30562,0.28652 -0.725847,0.49663 -0.410677,0.20057 -0.888208,0.31517 -0.477531,0.11461 -0.926411,0.14326 -0.0096,0.0478 -0.0191,0.10506 0,0.0478 0,0.0955 0,0.18146 0.07641,0.29607 0.08596,0.10505 0.210114,0.16236 0.124158,0.0477 0.267417,0.0573 0.143259,0 0.267418,-0.0286 0.324721,-0.0573 0.668543,-0.21012 0.343823,-0.16236 0.687645,-0.41067 0.353373,-0.24832 0.706746,-0.56349 0.353373,-0.31517 0.697196,-0.68764 0.09551,-0.0764 0.181462,-0.0669 0.08595,0 0.133708,0.0573 0.04775,0.0478 0.0382,0.13371 0,0.086 -0.06685,0.17191 z m -2.158441,-1.01236 q -0.219665,0.0764 -0.44888,0.22921 -0.219664,0.14326 -0.429778,0.34383 -0.200563,0.19101 -0.372474,0.42022 -0.171911,0.21967 -0.286519,0.44888 0.420228,-0.0478 0.773601,-0.16236 0.362923,-0.12416 0.62079,-0.29607 0.257867,-0.17191 0.410677,-0.38202 0.162361,-0.21012 0.181462,-0.42978 0.0191,-0.13371 -0.105057,-0.19101 -0.114607,-0.0573 -0.343822,0.0191 z"
         style="font-style:normal;font-variant:normal;font-weight:normal;font-stretch:normal;font-family:'Blessed Personal Use';-inkscape-font-specification:'Blessed Personal Use';fill:#008b40;fill-opacity:1"
         id="path8137"
         inkscape:connector-curvature="0" />
      <path
         d="m 55.016443,171.78949 q -0.248317,0.34382 -0.544386,0.72584 -0.286519,0.37248 -0.620791,0.82136 -0.133708,0.19101 -0.286518,0.22921 -0.14326,0.0287 -0.382025,0.01 -0.14326,-0.01 -0.248316,-0.0286 -0.105057,-0.0191 -0.15281,-0.0573 -0.04775,-0.0478 -0.0382,-0.11461 0.0191,-0.0764 0.114608,-0.21011 0.439328,-0.60169 0.678094,-0.93596 0.248316,-0.34383 0.382025,-0.51574 0.133709,-0.18146 0.181462,-0.24831 0.0573,-0.0669 0.114607,-0.13371 0.296069,-0.36293 0.334272,-0.54439 0.0382,-0.18146 -0.133709,-0.13371 -0.171911,0.0382 -0.534835,0.32472 -0.353373,0.27697 -0.830904,0.83091 l -0.06685,0.0859 q -0.229215,0.32473 -0.506183,0.6781 -0.276969,0.35337 -0.582588,0.76405 -0.133709,0.19101 -0.286519,0.22921 -0.14326,0.0287 -0.391576,0.01 -0.286518,-0.0191 -0.391575,-0.0859 -0.114608,-0.0669 0.07641,-0.32472 l 1.060119,-1.4517 0.353373,-0.49663 q 0.114607,-0.18146 0.08596,-0.20056 -0.02865,-0.0287 -0.09551,0.0382 l -0.238765,0.23876 q -0.105057,0.13371 -0.210114,0.15281 -0.09551,0.0191 -0.15281,-0.0382 -0.04775,-0.0573 -0.0382,-0.16236 0.0095,-0.11461 0.124158,-0.24831 0.324721,-0.38203 0.725847,-0.7163 0.401126,-0.33427 0.802252,-0.45843 0.210114,-0.0669 0.372475,-0.0191 0.171911,0.0382 0.257867,0.16236 0.08596,0.11461 0.07641,0.30562 -0.0096,0.18146 -0.15281,0.39157 0.324721,-0.31517 0.668543,-0.55393 0.353373,-0.23877 0.639892,-0.24832 0.181462,-0.01 0.343823,0.0478 0.16236,0.0478 0.248316,0.15281 0.09551,0.0955 0.105057,0.24832 0.0191,0.15281 -0.07641,0.35337 0.30562,-0.30562 0.658993,-0.54438 0.353373,-0.23877 0.668543,-0.25787 0.210114,-0.01 0.382025,0.0478 0.181462,0.0573 0.276968,0.19102 0.09551,0.12416 0.08596,0.31517 -0.0096,0.18146 -0.181462,0.42978 -0.105057,0.14325 -0.191012,0.27696 -0.08596,0.12416 -0.191013,0.27697 -0.105057,0.14326 -0.238765,0.32472 -0.124158,0.18146 -0.29607,0.42978 -0.133708,0.19101 -0.16236,0.29607 -0.0191,0.0955 0.0095,0.14326 0.0382,0.0478 0.114608,0.0478 0.08595,0 0.16236,-0.0191 0.14326,-0.0286 0.334272,-0.13371 0.191013,-0.10505 0.382025,-0.23876 0.191013,-0.14326 0.362924,-0.28652 0.181462,-0.15281 0.286519,-0.26742 l 0.668543,-0.69719 q 0.09551,-0.0764 0.181462,-0.0669 0.08596,0 0.133709,0.0573 0.04775,0.0478 0.0382,0.13371 0,0.086 -0.07641,0.17191 -0.200563,0.21967 -0.401126,0.43933 -0.200563,0.21967 -0.448879,0.43933 -0.496633,0.44888 -0.888208,0.7163 -0.391576,0.26742 -0.697196,0.42023 -0.296069,0.14326 -0.515733,0.20056 -0.219665,0.0478 -0.391576,0.0478 -0.343822,0.0191 -0.496632,-0.17191 -0.15281,-0.20056 -0.124158,-0.42978 0.0095,-0.14326 0.04775,-0.25786 0.0382,-0.12416 0.09551,-0.23877 0.06685,-0.11461 0.143259,-0.22921 0.08596,-0.12416 0.200563,-0.27697 l 0.821354,-1.14608 q 0.114607,-0.14326 0.04775,-0.17191 -0.0573,-0.0382 -0.267417,0.0669 -0.200563,0.0955 -0.534835,0.35337 -0.334272,0.25787 -0.76405,0.70675 -0.0191,0.0191 -0.0191,0.0287 z"
         style="font-style:normal;font-variant:normal;font-weight:normal;font-stretch:normal;font-family:'Blessed Personal Use';-inkscape-font-specification:'Blessed Personal Use';fill:#008b40;fill-opacity:1"
         id="path8139"
         inkscape:connector-curvature="0" />
      <path
         d="m 60.374085,172.21489 q -0.496632,0.44888 -0.888208,0.72585 -0.382025,0.27697 -0.687645,0.42978 -0.296069,0.14326 -0.525284,0.20056 -0.219664,0.0478 -0.382025,0.0286 -0.171911,-0.01 -0.267418,-0.0955 -0.105056,-0.0955 -0.15281,-0.21967 -0.0573,-0.12416 -0.06685,-0.24831 -0.0191,-0.12416 -0.0096,-0.20057 0.0573,-0.30562 0.210114,-0.60169 0.14326,-0.29607 0.362924,-0.60169 0.210114,-0.30562 0.46798,-0.63989 0.267418,-0.33427 0.563487,-0.72584 0.133709,-0.18147 0.276968,-0.21012 0.15281,-0.0382 0.391576,-0.0191 0.143259,0.01 0.248316,0.0286 0.105057,0.01 0.15281,0.0573 0.04775,0.0382 0.02865,0.12415 -0.0191,0.0764 -0.114607,0.21012 l -1.232031,1.71911 q -0.0573,0.086 -0.0573,0.17191 0,0.0764 0.0382,0.14326 0.04775,0.0573 0.114607,0.086 0.0764,0.0286 0.15281,0.01 0.14326,-0.0287 0.324722,-0.12416 0.181461,-0.10506 0.362923,-0.22922 0.181462,-0.12415 0.334272,-0.25786 0.162361,-0.13371 0.267418,-0.23877 l 0.658993,-0.69719 q 0.105056,-0.0764 0.191012,-0.0669 0.08596,0 0.124158,0.0573 0.04775,0.0478 0.0382,0.13371 0,0.086 -0.06685,0.17191 -0.200563,0.21967 -0.410677,0.43933 -0.200563,0.21967 -0.448879,0.43933 z m -0.401126,-2.86518 q -0.15281,-0.19102 -0.09551,-0.44888 0.0573,-0.25787 0.30562,-0.42978 0.248316,-0.19101 0.525284,-0.19101 0.276968,0 0.429778,0.19101 0.15281,0.19101 0.08596,0.44888 -0.06685,0.25786 -0.29607,0.43933 -0.248316,0.19101 -0.534835,0.19101 -0.276968,-0.01 -0.420227,-0.20056 z"
         style="font-style:normal;font-variant:normal;font-weight:normal;font-stretch:normal;font-family:'Blessed Personal Use';-inkscape-font-specification:'Blessed Personal Use';fill:#008b40;fill-opacity:1"
         id="path8141"
         inkscape:connector-curvature="0" />
      <path
         d="m 61.228875,171.33106 q -0.08596,0.0955 -0.191013,0.10505 -0.09551,0.01 -0.15281,-0.0382 -0.0573,-0.0478 -0.0573,-0.14326 0.0096,-0.0955 0.133708,-0.22921 0.15281,-0.16236 0.276968,-0.30562 0.133709,-0.14326 0.257867,-0.29607 0.133709,-0.15281 0.286519,-0.32472 0.15281,-0.17191 0.362924,-0.40113 0.16236,-0.17191 0.343822,-0.23876 0.181462,-0.0669 0.324721,-0.0478 0.15281,0.01 0.229215,0.10506 0.07641,0.0859 0.0191,0.21011 -0.0191,0.0286 -0.06685,0.0478 -0.0382,0.01 -0.09551,0.0668 -0.0573,0.0478 -0.105057,0.17191 -0.04775,0.12416 -0.07641,0.36293 -0.0191,0.24831 0,0.50618 0.0191,0.24831 0.0382,0.50618 0.02865,0.24832 0.02865,0.50618 0,0.24832 -0.0573,0.50619 0.257867,-0.14326 0.515733,-0.34383 0.267418,-0.20056 0.420228,-0.36292 l 0.658993,-0.69719 q 0.09551,-0.0764 0.181462,-0.0669 0.08595,0 0.133708,0.0573 0.04775,0.0478 0.0382,0.13371 0,0.086 -0.07641,0.17191 -0.210114,0.21967 -0.410677,0.43933 -0.200563,0.21967 -0.439329,0.43933 -0.687645,0.61124 -1.165176,0.91686 -0.46798,0.29607 -0.802252,0.40113 -0.372474,0.13371 -0.668544,0.13371 -0.439328,0 -0.735398,-0.13371 -0.296069,-0.14326 -0.45843,-0.36293 -0.171911,-0.21966 -0.200563,-0.47753 -0.02865,-0.26741 0.06685,-0.50618 0.08596,-0.23877 0.30562,-0.42023 0.219665,-0.19101 0.553937,-0.26741 0.09551,-0.0191 0.238765,0.0191 0.14326,0.0286 0.238766,0.0955 0.105057,0.0573 0.114607,0.13371 0.0191,0.0764 -0.124158,0.14326 -0.15281,0.0669 -0.257867,0.19101 -0.09551,0.12416 -0.124158,0.24832 -0.0191,0.12416 0.0382,0.21966 0.06685,0.086 0.248316,0.086 0.200563,0 0.353373,-0.16236 0.15281,-0.16236 0.257867,-0.39158 0.114607,-0.22921 0.181462,-0.47753 0.0764,-0.24831 0.105057,-0.42023 0.02865,-0.19101 0.02865,-0.34382 0,-0.15281 0.0191,-0.28652 -0.200563,0.21967 -0.362924,0.40113 -0.15281,0.17191 -0.372474,0.42023 z"
         style="font-style:normal;font-variant:normal;font-weight:normal;font-stretch:normal;font-family:'Blessed Personal Use';-inkscape-font-specification:'Blessed Personal Use';fill:#008b40;fill-opacity:1"
         id="path8143"
         inkscape:connector-curvature="0" />
      <path
         d="m 68.844908,171.28417 q -0.391575,0.40113 -0.821353,0.81181 -0.429778,0.41067 -0.90731,0.7354 -0.46798,0.32472 -0.983714,0.53483 -0.515734,0.20056 -1.06967,0.19101 -0.296069,-0.01 -0.582588,-0.0764 -0.276968,-0.0764 -0.496632,-0.21967 -0.210114,-0.15281 -0.324721,-0.38202 -0.124159,-0.22922 -0.105057,-0.55394 0.0191,-0.28652 0.181462,-0.58259 0.16236,-0.29606 0.420227,-0.57303 0.257867,-0.28652 0.592139,-0.53484 0.343822,-0.25786 0.706746,-0.44888 0.362924,-0.19101 0.735398,-0.31517 0.382025,-0.12416 0.725847,-0.14326 0.343823,-0.0191 0.563487,0.0478 0.229215,0.0669 0.343823,0.19101 0.124158,0.11461 0.15281,0.27697 0.02865,0.15281 -0.0191,0.31517 -0.114607,0.36292 -0.420227,0.65899 -0.30562,0.28652 -0.725848,0.49663 -0.410676,0.20057 -0.888208,0.31517 -0.477531,0.11461 -0.92641,0.14326 -0.0096,0.0478 -0.0191,0.10506 0,0.0478 0,0.0955 0,0.18146 0.07641,0.29607 0.08595,0.10505 0.210113,0.16236 0.124158,0.0477 0.267418,0.0573 0.143259,0 0.267417,-0.0286 0.324722,-0.0573 0.668544,-0.21012 0.343822,-0.16236 0.687645,-0.41067 0.353373,-0.24832 0.706746,-0.56349 0.353373,-0.31517 0.697196,-0.68764 0.09551,-0.0764 0.181461,-0.0669 0.08596,0 0.133709,0.0573 0.04775,0.0478 0.0382,0.13371 0,0.086 -0.06686,0.17191 z m -2.158441,-1.01236 q -0.219664,0.0764 -0.448879,0.22921 -0.219664,0.14326 -0.429778,0.34383 -0.200563,0.19101 -0.372474,0.42022 -0.171912,0.21967 -0.286519,0.44888 0.420227,-0.0478 0.7736,-0.16236 0.362924,-0.12416 0.620791,-0.29607 0.257867,-0.17191 0.410677,-0.38202 0.16236,-0.21012 0.181462,-0.42978 0.0191,-0.13371 -0.105057,-0.19101 -0.114608,-0.0573 -0.343823,0.0191 z"
         style="font-style:normal;font-variant:normal;font-weight:normal;font-stretch:normal;font-family:'Blessed Personal Use';-inkscape-font-specification:'Blessed Personal Use';fill:#008b40;fill-opacity:1"
         id="path8145"
         inkscape:connector-curvature="0" />
    </g>
  </g>
  <g
     inkscape:label="COCCINELLE"
     inkscape:groupmode="layer"
     id="layer1">
    <text
       xml:space="preserve"
       style="font-style:normal;font-weight:normal;line-height:0%;font-family:sans-serif;letter-spacing:0px;word-spacing:0px;fill:#ffffff;fill-opacity:1;stroke:none;stroke-width:0.22580184;stroke-opacity:1"
       x="84.508217"
       y="117.431"
       id="text3701-3"
       transform="scale(0.95019696,1.0524134)"
       inkscape:export-xdpi="300"
       inkscape:export-ydpi="300"><tspan
         sodipodi:role="line"
         id="tspan3699-8"
         x="84.508217"
         y="117.431"
         style="font-style:normal;font-variant:normal;font-weight:normal;font-stretch:normal;font-size:9.03207397px;line-height:1.25;font-family:'Blessed Personal Use';-inkscape-font-specification:'Blessed Personal Use';fill:#ffffff;stroke:none;stroke-width:0.22580184;stroke-opacity:1">La Remise</tspan></text>
    <path
       style="fill:none;stroke:none;stroke-width:0.26458332px;stroke-linecap:butt;stroke-linejoin:miter;stroke-opacity:1"
       d="m 85.476638,109.83743 c 9.627971,-10.459055 25.224042,-9.39978 36.094182,4.32591"
       id="path4850"
       inkscape:connector-curvature="0"
       sodipodi:nodetypes="cc"
       inkscape:export-xdpi="300"
       inkscape:export-ydpi="300" />
    <text
       transform="translate(54.535822,-8.1987378)"
       xml:space="preserve"
       style="font-style:normal;font-weight:normal;font-size:5.39078045px;line-height:0%;font-family:sans-serif;letter-spacing:0px;word-spacing:0px;fill:#ffffff;fill-opacity:1;stroke:none;stroke-width:0.1347695"
       id="text4724-9"
       inkscape:export-xdpi="300"
       inkscape:export-ydpi="300"><textPath
         xlink:href="#path4726-7"
         id="textPath4728-4"><tspan
   style="font-style:normal;font-variant:normal;font-weight:normal;font-stretch:normal;font-size:3.88055563px;font-family:'Gill Sans MT';-inkscape-font-specification:'Gill Sans MT';fill:#ffffff;stroke-width:0.1347695"
   id="tspan4722-3">DEPUIS 1985</tspan></textPath></text>
    <path
       style="fill:none;stroke:none;stroke-width:0.26458332px;stroke-linecap:butt;stroke-linejoin:miter;stroke-opacity:1"
       d="m 94.077177,130.81516 c 5.692457,2.98229 13.298103,2.40223 20.265013,-0.47795"
       id="path4868"
       inkscape:connector-curvature="0"
       sodipodi:nodetypes="cc"
       inkscape:export-xdpi="300"
       inkscape:export-ydpi="300" />
    <path
       style="fill:none;stroke:none;stroke-width:0.26458332px;stroke-linecap:butt;stroke-linejoin:miter;stroke-opacity:1"
       d="m 25.939936,159.60798 c 10.707497,-9.51448 34.795978,-6.91814 41.75804,3.78079"
       id="path6124"
       inkscape:connector-curvature="0"
       sodipodi:nodetypes="cc"
       inkscape:export-xdpi="300"
       inkscape:export-ydpi="300" />
    <g
       id="g5454-7-7"
       transform="matrix(0.26132829,0.39367982,-0.42518501,0.27786858,59.009457,122.68623)"
       inkscape:transform-center-x="0.80236778"
       inkscape:transform-center-y="1.1168356" />
    <g
       id="text3701-2"
       style="font-style:normal;font-weight:normal;font-size:9.73170567px;line-height:1.25;font-family:sans-serif;letter-spacing:0px;word-spacing:0px;fill:#008000;fill-opacity:1;stroke:none;stroke-width:0.60299999;stroke-miterlimit:4;stroke-dasharray:none;stroke-opacity:1"
       transform="matrix(0.91864532,0,0,1.0885594,-1.3744079,50.80933)"
       aria-label="La Remise">
      <flowRoot
         transform="matrix(0.30721566,0,0,0.25926213,1.4961246,-46.675753)"
         style="font-style:normal;font-weight:normal;line-height:0.01%;font-family:sans-serif;letter-spacing:-1.62px;word-spacing:0px;fill:#000000;fill-opacity:1;stroke:none;stroke-width:1px;stroke-linecap:butt;stroke-linejoin:miter;stroke-opacity:1"
         id="flowRoot12737"
         xml:space="preserve"><flowRegion
           id="flowRegion12739"><rect
             y="581.31732"
             x="51.880817"
             height="57.096348"
             width="186.11214"
             id="rect12741" /></flowRegion><flowPara
           id="flowPara12743"
           style="font-size:30px;line-height:1.25"> </flowPara></flowRoot>    </g>
    <g
       style=""
       id="g8146"
       transform="matrix(1.0641164,0,0,1.0641164,-7.2591287,-11.835109)"
       inkscape:export-filename="C:\Users\pioup\Documents\Formation\Graphisme\projet\logo\cocinelle seule.png"
       inkscape:export-xdpi="298.49902"
       inkscape:export-ydpi="298.49902">
      <path
         inkscape:export-ydpi="300"
         inkscape:export-xdpi="300"
         sodipodi:nodetypes="ccccc"
         inkscape:connector-curvature="0"
         id="path17184"
         d="m 73.053464,167.77383 c -0.943205,0 -1.368727,0 -2.031159,0.96274 0.606422,0.50766 1.395756,0.50766 2.031159,0.50766 0.649929,0 1.427981,0 1.971229,-0.50766 -0.504067,-0.96274 -1.028023,-0.96274 -1.971229,-0.96274 z"
         style="opacity:1;fill:#000000;fill-opacity:1;fill-rule:evenodd;stroke:none;stroke-width:0.28222224px;stroke-linecap:butt;stroke-linejoin:miter;stroke-opacity:1" />
      <path
         inkscape:export-ydpi="300"
         inkscape:export-xdpi="300"
         sodipodi:nodetypes="sssscccss"
         inkscape:connector-curvature="0"
         id="path12640"
         d="m 76.137758,171.75728 c 0,2.11066 -1.3832,3.82169 -3.089466,3.82169 -1.706265,0 -3.089466,-1.71103 -3.089466,-3.82169 0,-1.05533 0.346769,-2.03912 0.906336,-2.7449 0.06995,-0.0883 0.143218,-0.17211 0.219552,-0.25123 0.607874,0.50262 1.33112,0.50262 1.946493,0.4932 0.642477,0.01 1.23399,-0.0848 1.872457,-0.49784 0.07818,0.0767 0.191925,0.25191 0.264507,0.33676 0.580652,0.67881 0.969587,1.60868 0.969587,2.66401 z"
         style="opacity:1;fill:#000000;fill-opacity:1;stroke:none;stroke-width:3.20000005;stroke-linecap:round;stroke-linejoin:bevel;stroke-miterlimit:4;stroke-dasharray:none;stroke-opacity:1" />
      <path
         inkscape:export-ydpi="300"
         inkscape:export-xdpi="300"
         sodipodi:nodetypes="cccc"
         inkscape:connector-curvature="0"
         id="path17174"
         d="m 72.110259,167.82424 c 0,-0.0874 0,-0.47505 0.943205,-0.47505 0.943206,0 0.943206,0.38768 0.943206,0.47505 z"
         style="opacity:1;fill:#000000;fill-opacity:1;fill-rule:evenodd;stroke:none;stroke-width:1px;stroke-linecap:butt;stroke-linejoin:miter;stroke-opacity:1" />
      <path
         inkscape:export-ydpi="300"
         inkscape:export-xdpi="300"
         sodipodi:nodetypes="cssc"
         inkscape:connector-curvature="0"
         id="path17186"
         d="m 73.902811,167.94617 c 0,0 6.55e-4,0.62436 0.303211,0.51486 0.343237,-0.12421 0.575966,0.16808 0.586208,0.0477 0.0171,-0.20095 -0.748343,-0.64255 -0.889419,-0.56253 z"
         style="opacity:1;fill:#ffffff;fill-opacity:1;fill-rule:evenodd;stroke:none;stroke-width:0.28222224px;stroke-linecap:butt;stroke-linejoin:miter;stroke-opacity:1" />
      <path
         inkscape:export-ydpi="300"
         inkscape:export-xdpi="300"
         sodipodi:nodetypes="cssc"
         inkscape:connector-curvature="0"
         id="path17186-5"
         d="m 72.249758,167.94617 c 0,0 -6.55e-4,0.62436 -0.303211,0.51486 -0.343237,-0.12421 -0.575966,0.16808 -0.586208,0.0477 -0.0171,-0.20095 0.748343,-0.64255 0.889419,-0.56253 z"
         style="opacity:1;fill:#ffffff;fill-opacity:1;fill-rule:evenodd;stroke:none;stroke-width:0.28222224px;stroke-linecap:butt;stroke-linejoin:miter;stroke-opacity:1" />
      <path
         inkscape:export-ydpi="300"
         inkscape:export-xdpi="300"
         sodipodi:nodetypes="ccccc"
         inkscape:connector-curvature="0"
         id="path17218-0"
         d="m 73.012847,169.23983 c 0,0 0.11951,5.51862 -0.45223,6.39135 -0.450358,0.004 -2.597105,-0.80762 -2.731095,-3.77482 0,-0.48753 0,-2.10646 1.203395,-3.11979 0.350212,0.35231 0.995684,0.52871 1.97993,0.50326 z"
         style="opacity:1;fill:#e5042f;fill-opacity:1;fill-rule:evenodd;stroke:none;stroke-width:1px;stroke-linecap:butt;stroke-linejoin:miter;stroke-opacity:1" />
      <path
         inkscape:export-ydpi="300"
         inkscape:export-xdpi="300"
         sodipodi:nodetypes="ccccc"
         inkscape:connector-curvature="0"
         id="path17218-0-4"
         d="m 73.04342,169.23983 c 0,0 -0.11951,5.51862 0.452231,6.39135 0.450356,0.004 2.597105,-0.80762 2.731094,-3.77482 0,-0.48753 0,-2.10646 -1.203395,-3.11979 -0.350212,0.35232 -0.995684,0.52871 -1.97993,0.50326 z"
         style="opacity:1;fill:#e5042f;fill-opacity:1;fill-rule:evenodd;stroke:none;stroke-width:1px;stroke-linecap:butt;stroke-linejoin:miter;stroke-opacity:1" />
      <path
         inkscape:export-ydpi="300"
         inkscape:export-xdpi="300"
         sodipodi:nodetypes="cc"
         inkscape:connector-curvature="0"
         id="path17258"
         d="m 72.403219,167.47501 c -0.382313,0.004 -0.765775,0.0111 -1.017901,-0.18891"
         style="opacity:1;fill:none;fill-rule:evenodd;stroke:#000000;stroke-width:0.11276961;stroke-linecap:round;stroke-linejoin:miter;stroke-miterlimit:4;stroke-dasharray:none;stroke-opacity:1" />
      <path
         inkscape:export-ydpi="300"
         inkscape:export-xdpi="300"
         sodipodi:nodetypes="cc"
         inkscape:connector-curvature="0"
         id="path17258-3"
         d="m 73.683914,167.47501 c 0.382313,0.004 0.765775,0.0111 1.017901,-0.18891"
         style="opacity:1;fill:none;fill-rule:evenodd;stroke:#000000;stroke-width:0.11276961;stroke-linecap:round;stroke-linejoin:miter;stroke-miterlimit:4;stroke-dasharray:none;stroke-opacity:1" />
      <g
         inkscape:export-ydpi="300"
         inkscape:export-xdpi="300"
         transform="matrix(0.02671669,0,0,0.02520336,61.127513,149.58778)"
         style="opacity:1"
         id="g17351">
        <path
           style="fill:#000000;fill-opacity:1;fill-rule:evenodd;stroke:none;stroke-width:1px;stroke-linecap:butt;stroke-linejoin:miter;stroke-opacity:1"
           d="m 341.85359,834.9769 c 0,0 10.4206,6.36815 6.94707,14.47306 -3.47354,8.10491 -6.07869,12.44683 -10.71007,8.97329 -4.63138,-3.47353 -4.45583,-12.74611 -3.47353,-17.36766 0.87727,-4.12739 3.47353,-6.94708 7.23653,-6.07869 z"
           id="path17279"
           inkscape:connector-curvature="0"
           sodipodi:nodetypes="csssc" />
        <path
           style="fill:#000000;fill-opacity:1;fill-rule:evenodd;stroke:none;stroke-width:1px;stroke-linecap:butt;stroke-linejoin:miter;stroke-opacity:1"
           d="m 389.03575,881.8696 c 0.82736,-0.45965 23.05325,6.26492 18.23605,24.89366 -4.78068,18.48754 -24.02527,6.94707 -24.02527,6.94707 0,0 -13.31521,-6.65761 -11.57845,-19.10444 1.73677,-12.44683 17.36767,-12.73629 17.36767,-12.73629 z"
           id="path17281"
           inkscape:connector-curvature="0"
           sodipodi:nodetypes="cscsc" />
        <path
           style="fill:#000000;fill-opacity:1;fill-rule:evenodd;stroke:none;stroke-width:1px;stroke-linecap:butt;stroke-linejoin:miter;stroke-opacity:1"
           d="m 351.98473,957.41896 c 0,0 9.26275,2.31569 18.23605,11.57844 8.97329,9.26276 14.18359,17.36767 14.18359,19.97282 0,2.60515 -6.36814,5.49976 -9.55222,3.47353 -3.18407,-2.02623 -29.23557,-28.94611 -22.86742,-35.02479 z"
           id="path17283"
           inkscape:connector-curvature="0" />
        <path
           style="fill:#000000;fill-opacity:1;fill-rule:evenodd;stroke:none;stroke-width:1px;stroke-linecap:butt;stroke-linejoin:miter;stroke-opacity:1"
           d="m 445.30004,779.00014 0,37.99379 c 0,0 -19.31888,3.54179 -25.7585,-1.28793 -6.43963,-4.82972 -2.57585,-19.64085 -2.57585,-19.64085 0,0 1.73979,-4.58579 13.20123,-9.98142 8.86963,-4.1755 6.0038,-6.93069 6.0038,-6.93069 z"
           id="path17285"
           inkscape:connector-curvature="0"
           sodipodi:nodetypes="ccscscc" />
      </g>
      <g
         inkscape:export-ydpi="300"
         inkscape:export-xdpi="300"
         style="opacity:1"
         transform="matrix(-0.02671669,0,0,0.02520336,86.103771,151.74948)"
         id="g17338">
        <path
           style="fill:#000000;fill-opacity:1;fill-rule:evenodd;stroke:none;stroke-width:1px;stroke-linecap:butt;stroke-linejoin:miter;stroke-opacity:1"
           d="m 385.78046,749.2062 c 0,0 10.4206,6.36815 6.94707,14.47306 -3.47354,8.10491 -6.07869,12.44683 -10.71007,8.97329 -4.63138,-3.47353 -4.45583,-12.74611 -3.47353,-17.36766 0.87727,-4.12739 3.47353,-6.94708 7.23653,-6.07869 z"
           id="path17279-4"
           inkscape:connector-curvature="0"
           sodipodi:nodetypes="csssc" />
        <path
           style="fill:#000000;fill-opacity:1;fill-rule:evenodd;stroke:none;stroke-width:1px;stroke-linecap:butt;stroke-linejoin:miter;stroke-opacity:1"
           d="m 432.96262,796.0989 c 0.82736,-0.45965 23.05325,6.26492 18.23605,24.89366 -4.78068,18.48754 -24.02527,6.94707 -24.02527,6.94707 0,0 -13.31521,-6.65761 -11.57845,-19.10444 1.73677,-12.44683 17.36767,-12.73629 17.36767,-12.73629 z"
           id="path17281-8"
           inkscape:connector-curvature="0"
           sodipodi:nodetypes="cscsc" />
        <path
           style="fill:#000000;fill-opacity:1;fill-rule:evenodd;stroke:none;stroke-width:1px;stroke-linecap:butt;stroke-linejoin:miter;stroke-opacity:1"
           d="m 395.9116,871.64826 c 0,0 9.26275,2.31569 18.23605,11.57844 8.97329,9.26276 14.18359,17.36767 14.18359,19.97282 0,2.60515 -6.36814,5.49976 -9.55222,3.47353 -3.18407,-2.02623 -29.23557,-28.94611 -22.86742,-35.02479 z"
           id="path17283-4"
           inkscape:connector-curvature="0" />
        <path
           style="fill:#000000;fill-opacity:1;fill-rule:evenodd;stroke:none;stroke-width:1px;stroke-linecap:butt;stroke-linejoin:miter;stroke-opacity:1"
           d="m 489.22692,693.22944 0,37.99379 c 0,0 -19.31889,3.54179 -25.75851,-1.28793 -6.43963,-4.82972 -2.57585,-19.64085 -2.57585,-19.64085 0,0 1.73979,-4.58579 13.20123,-9.98142 8.86964,-4.1755 6.00381,-6.93069 6.00381,-6.93069 z"
           id="path17285-4"
           inkscape:connector-curvature="0"
           sodipodi:nodetypes="ccscscc" />
      </g>
    </g>
  </g>
  <g
     inkscape:groupmode="layer"
     id="layer2"
     inkscape:label="BASELINE" />
</svg>
